HIERARCHY
ROOT Hips
{
  OFFSET -331.093 83.8371 -317.828
  CHANNELS 6 Xposition Yposition Zposition Zrotation Xrotation Yrotation
  JOINT LeftUpLeg
  {
    OFFSET 8.64259 1.95398 -2.38835
    CHANNELS 3 Zrotation Xrotation Yrotation
    JOINT LeftLeg
    {
      OFFSET 43.7702 0 0
      CHANNELS 3 Zrotation Xrotation Yrotation
      JOINT LeftFoot
      {
        OFFSET 40.6238 0 0
        CHANNELS 3 Zrotation Xrotation Yrotation
        JOINT LeftToeBase
        {
          OFFSET 12.7242 0 0
          CHANNELS 3 Zrotation Xrotation Yrotation
          End Site
          {
            OFFSET 0 0 0
          }
        }
      }
    }
  }
  JOINT RightUpLeg
  {
    OFFSET -8.2249 1.95398 -2.59336
    CHANNELS 3 Zrotation Xrotation Yrotation
    JOINT RightLeg
    {
      OFFSET 43.5653 0 0
      CHANNELS 3 Zrotation Xrotation Yrotation
      JOINT RightFoot
      {
        OFFSET 40.6238 0 0
        CHANNELS 3 Zrotation Xrotation Yrotation
        JOINT RightToeBase
        {
          OFFSET 12.7242 0 0
          CHANNELS 3 Zrotation Xrotation Yrotation
          End Site
          {
            OFFSET 0 0 0
          }
        }
      }
    }
  }
  JOINT Spine
  {
    OFFSET 0.165834 0.87714 6.61349
    CHANNELS 3 Zrotation Xrotation Yrotation
    JOINT Spine1
    {
      OFFSET 7.38963 1.71661e-005 0
      CHANNELS 3 Zrotation Xrotation Yrotation
      JOINT Spine2
      {
        OFFSET 11.9445 1.14441e-005 0
        CHANNELS 3 Zrotation Xrotation Yrotation
        JOINT Spine3
        {
          OFFSET 14.7254 4.19617e-005 0
          CHANNELS 3 Zrotation Xrotation Yrotation
          JOINT Spine4
          {
            OFFSET 10.9679 0 0
            CHANNELS 3 Zrotation Xrotation Yrotation
            JOINT RightShoulder
            {
              OFFSET 2.46616 -1.6653 3.69651
              CHANNELS 3 Zrotation Xrotation Yrotation
              JOINT RightArm
              {
                OFFSET 13.0012 0 0
                CHANNELS 3 Zrotation Xrotation Yrotation
                JOINT RightForeArm
                {
                  OFFSET 28.7848 1.62311e-005 0
                  CHANNELS 3 Zrotation Xrotation Yrotation
                  JOINT RightHand
                  {
                    OFFSET 26.5688 1.62095e-005 0
                    CHANNELS 3 Zrotation Xrotation Yrotation
                    End Site
                    {
                      OFFSET 0 0 0
                    }
                  }
                }
              }
            }
            JOINT LeftShoulder
            {
              OFFSET 2.38034 -1.29275 -3.7523
              CHANNELS 3 Zrotation Xrotation Yrotation
              JOINT LeftArm
              {
                OFFSET 16.3182 6.07031e-005 0
                CHANNELS 3 Zrotation Xrotation Yrotation
                JOINT LeftForeArm
                {
                  OFFSET 27.0901 0 0
                  CHANNELS 3 Zrotation Xrotation Yrotation
                  JOINT LeftHand
                  {
                    OFFSET 24.5451 1.51738e-005 0
                    CHANNELS 3 Zrotation Xrotation Yrotation
                    End Site
                    {
                      OFFSET 0 0 0
                    }
                  }
                }
              }
            }
            JOINT Neck
            {
              OFFSET 5.0226 -0.0266342 0
              CHANNELS 3 Zrotation Xrotation Yrotation
              JOINT Head
              {
                OFFSET 6.69364 2.86102e-005 0
                CHANNELS 3 Zrotation Xrotation Yrotation
                End Site
                {
                  OFFSET 0 0 0
                }
              }
            }
          }
        }
      }
    }
  }
}
MOTION
Frames:	12
Frame Time:	0.0416667
-62.5382 20.1783 33.618 -4.10852 -9.9317 -6.16558 -170.197 8.21633 85.8928 -27.2943 12.6584 -6.74087 62.4244 5.0109 7.92532 43.7423 55.0577 58.3246 175.032 13.2075 82.5323 -41.4015 -17.622 -7.91673 77.1247 -8.69824 -4.19688 69.5738 -0.601839 0.339569 0.333639 7.62553 -91.572 11.6112 -0.0726252 -3.125 -0.0634522 -0.210022 -3.11881 -22.57 0.869487 -3.00262 -2.55739 0.869496 -3.00261 92.3768 -37.2574 -99.605 11.9832 -9.98929 18.4933 -57.3211 23.9376 -103.792 -68.2096 -12.6025 14.8481 -84.9132 -30.1982 83.496 19.8955 -17.6429 20.3168 26.8995 -13.4984 -126.946 57.8893 15.3944 22.0136 3.61273 -0.621391 2.41145 44.8893 1.28844 5.42447 
-62.4611 18.3755 34.0988 -2.96665 -8.81077 -5.94382 -170.851 7.16057 85.418 -25.1455 12.0124 -6.21785 62.3053 5.28316 8.29557 44.8172 55.7699 57.2627 174.515 12.1536 82.1589 -39.9912 -18.9629 -8.12547 77.5488 -8.99193 -4.29306 69.0162 -1.13538 -0.736001 0.194583 7.5179 -91.552 11.8233 -0.342779 -3.05804 0.148837 -0.47698 -3.04002 -22.3581 0.591688 -3.0198 -2.34541 0.591701 -3.01981 92.3908 -37.7328 -99.4594 13.1989 -9.98075 21.7645 -57.6615 25.6972 -104.462 -68.3221 -12.9569 15.3611 -84.3959 -30.2423 84.4982 19.55 -20.143 24.5037 22.147 -10.9983 -131.584 58.1867 15.0224 21.2269 5.03329 -0.107109 2.12188 43.6422 1.59209 5.04909 
-62.5279 17.077 34.4723 -3.30578 -8.18501 -5.4041 -170.76 6.53571 86.0747 -24.358 11.8342 -6.12405 62.2457 4.59219 7.05995 42.6373 54.448 59.5374 174.631 11.2198 82.542 -39.0366 -19.9156 -8.29425 77.5531 -9.13546 -4.33259 67.0967 -2.31548 -3.27969 0.216272 7.5004 -91.5954 11.8576 -0.320544 -3.14702 0.182946 -0.458673 -3.1299 -22.3224 0.639607 -3.098 -2.30974 0.639609 -3.09802 92.4989 -38.4412 -99.0886 13.1754 -10.1796 23.9285 -59.4376 26.7054 -104.163 -67.8665 -13.2948 16.0608 -84.6066 -31.3873 84.3235 22.8209 -24.2568 29.9241 22.5228 -11.0786 -135.526 58.8321 14.952 20.7927 5.6733 0.256981 1.8623 43.3168 1.82999 4.72154 
-62.667 15.9437 34.9176 -3.68923 -7.14382 -5.46631 -171.299 5.97033 85.8079 -23.0201 10.6576 -5.66373 62.5215 4.90704 7.04872 45.5483 54.5256 55.2461 174.541 10.8737 82.6458 -37.673 -19.6866 -8.31903 77.3971 -9.02358 -4.28874 66.8102 -1.93223 -2.51473 0.207787 7.40424 -91.5885 12.0502 -0.336914 -3.13251 0.375576 -0.47438 -3.11468 -22.13 0.61964 -3.08909 -2.11737 0.619638 -3.08908 92.6504 -37.9476 -98.9429 14.8973 -10.9382 25.738 -58.2661 27.349 -104.739 -70.0271 -12.6524 14.2537 -85.031 -33.4428 83.9379 28.2369 -28.8871 35.7459 20.0054 -7.71533 -139.109 53.9689 12.7863 19.4747 6.15298 0.450856 2.71476 43.2421 1.64652 4.30645 
-62.8252 14.7929 35.2558 -4.40102 -6.69202 -5.37316 -171.697 4.93529 85.9708 -21.7818 11.2161 -5.27969 62.1081 5.00551 7.77827 50.9441 55.4047 48.1638 174.235 10.0967 82.7384 -36.3838 -19.9249 -8.14838 77.1843 -8.96301 -4.25186 68.4267 -1.83577 -2.16983 0.237218 7.36848 -91.5293 12.1237 -0.251434 -3.0239 0.449274 -0.384216 -3.00993 -22.0585 0.668576 -2.95981 -2.04587 0.668582 -2.95982 92.494 -39.1119 -98.9319 15.4173 -11.5284 27.256 -58.6711 27.9679 -104.625 -68.443 -12.7116 14.919 -84.8533 -33.7491 84.3222 31.3349 -32.6163 40.5971 17.0316 -3.77774 -141.305 57.2936 12.6314 17.625 6.07887 0.772363 2.06803 43.8436 2.08317 4.23329 
-62.6912 13.7664 35.518 -4.45341 -5.97592 -5.52998 -172.194 4.19425 85.8473 -20.3621 12.2619 -5.02009 61.9513 4.89978 7.59611 54.4928 55.861 43.6547 173.862 9.71709 82.542 -35.4185 -19.7413 -8.08674 76.859 -8.69621 -4.16417 69.1641 -2.1665 -2.74791 0.251727 7.29896 -91.5569 12.2625 -0.237555 -3.08111 0.587946 -0.372862 -3.06771 -21.9189 0.698991 -3.01022 -1.90621 0.698995 -3.01024 92.8882 -37.9904 -98.507 16.9749 -11.1023 28.6789 -58.9867 27.5957 -104.665 -70.7792 -13.1776 14.7793 -85.1535 -35.0842 84.0326 33.5139 -34.609 43.8394 15.963 -1.85186 -142.49 57.2614 12.3011 17.0854 6.49295 1.16299 2.70094 43.6852 2.5629 4.84978 
-62.7841 12.8736 35.7233 -4.86819 -5.6766 -5.56233 -172.458 3.34357 86.1811 -19.4799 13.4952 -4.88424 62.5131 4.60706 6.10395 55.065 55.4542 42.5213 173.666 8.72809 82.6575 -33.9048 -18.8297 -8.006 77.1163 -8.80224 -4.16747 69.4443 -1.14168 -0.722233 0.357641 7.22462 -91.6126 12.4127 -0.0556922 -3.214 0.737846 -0.197012 -3.20846 -21.7672 0.912352 -3.0824 -1.7546 0.912351 -3.08243 93.0663 -37.6394 -98.2737 17.3126 -10.5491 30.6409 -58.8356 27.5897 -105.217 -72.009 -13.4254 14.7054 -86.6827 -36.9822 81.7114 40.3168 -36.9706 49.3984 15.8265 0.12871 -143.584 56.7616 12.4643 17.5732 4.59599 0.645993 3.3597 45.6686 1.73206 4.10431 
-62.6803 12.2515 35.8316 -5.10757 -4.96866 -5.63626 -172.831 3.37691 86.1216 -18.8926 15.2196 -4.7764 61.8549 4.63817 7.17113 56.1497 55.9299 41.4749 173.21 8.71642 82.4698 -33.2121 -18.9376 -7.62283 77.124 -8.84413 -4.16076 70.2812 -2.89471 -4.23663 0.483074 7.18288 -91.6109 12.4998 0.19301 -3.24 0.824831 0.0503032 -3.24535 -21.6812 1.15739 -3.03256 -1.66849 1.1574 -3.03256 94.0463 -37.863 -96.4647 17.3639 -10.4128 31.2618 -59.2574 27.9665 -104.98 -72.6531 -13.9406 15.2276 -87.1188 -38.0061 81.1787 46.1693 -40.3652 54.0151 16.8476 0.649509 -145.328 52.2116 10.8267 16.6224 5.44879 0.348959 2.19627 44.9863 2.12853 5.19016 
-62.781 11.9077 35.919 -4.52735 -4.52091 -5.37103 -172.798 3.23506 86.6526 -18.1778 17.2472 -4.56822 62.0825 4.8778 7.15727 58.8734 55.5041 37.5094 172.695 8.63136 82.8178 -32.4112 -16.7258 -7.05607 75.0015 -7.30391 -3.66379 78.5089 -1.75792 -1.2756 0.475119 7.09275 -91.6629 12.6787 0.149774 -3.3404 1.00345 0.00269793 -3.34375 -21.5003 1.14628 -3.14135 -1.48772 1.14628 -3.14133 94.4218 -36.9569 -95.9838 17.9508 -11.3514 32.0062 -59.1395 27.7353 -104.403 -72.5901 -13.6208 14.7912 -88.5818 -40.1979 79.206 49.1795 -40.7325 55.5902 15.1033 2.98058 -145.733 54.6796 11.1419 16.1405 3.26209 -0.00762585 3.31767 46.444 1.37353 4.52544 
-62.8566 11.7017 35.9852 -4.19822 -3.98529 -5.23213 -172.994 3.74908 86.9604 -18.4555 18.0479 -4.41992 62.651 4.53557 5.75542 59.9164 54.5151 35.2188 172.632 8.45039 83.1584 -31.5058 -15.7552 -6.73481 75.2435 -7.43643 -3.68568 73.7857 -2.74785 -3.35159 0.526251 6.99594 -91.6732 12.8736 0.243269 -3.3748 1.19833 0.0945948 -3.38222 -21.3054 1.24578 -3.14609 -1.29276 1.24579 -3.1461 94.8054 -36.2741 -95.4225 18.0768 -11.4085 33.1342 -56.5489 26.8314 -106.147 -72.643 -14.3181 15.8134 -89.8602 -41.7225 77.4667 52.1565 -41.5337 57.2072 14.0523 4.49185 -146.477 55.3008 11.1122 15.8275 3.15137 -0.335903 3.64588 46.2595 0.954835 4.4473 
-62.9278 11.5022 36.0073 -4.24421 -3.73957 -5.16052 -173.192 3.49223 87.0989 -17.8761 18.2436 -4.36696 63.1131 4.80213 5.53995 60.6778 53.7176 33.4818 172.608 7.91272 83.3254 -30.4549 -15.326 -6.60285 75.8369 -7.8686 -3.80893 73.6579 -3.44762 -4.62033 0.631586 6.9162 -91.7308 13.0351 0.42214 -3.51381 1.3594 0.267184 -3.52898 -21.1429 1.45813 -3.22505 -1.13026 1.45814 -3.22506 95.4239 -35.292 -94.4751 19.4272 -12.5033 34.319 -64.4894 28.2356 -101.206 -72.5627 -13.2931 14.2488 -91.1936 -43.3645 75.7478 53.2738 -41.9801 57.0285 12.8498 6.01808 -146.571 55.384 10.1887 14.1522 2.37575 -1.0043 4.59021 46.4228 0.232291 4.59691 
-62.9305 11.4911 36.0526 -3.76911 -3.668 -4.94323 -173.252 3.54389 87.2592 -17.7691 18.4136 -4.23826 63.3218 4.83674 5.23557 59.5056 53.1833 34.514 172.419 7.49125 83.5324 -29.7141 -14.7498 -6.40878 75.8593 -7.83599 -3.79128 74.412 -4.02749 -5.54034 0.664344 6.87276 -91.771 13.1224 0.466418 -3.60087 1.44651 0.307591 -3.61787 -21.0545 1.5265 -3.29483 -1.04182 1.52649 -3.29483 95.7836 -35.7801 -93.7143 18.3274 -12.9569 34.7514 -58.4372 27.9222 -104.577 -71.4586 -13.8134 15.5255 -92.2055 -44.4082 74.4363 56.867 -42.5364 58.4298 15.1091 3.6307 -147.19 53.6502 11.3105 16.8728 1.85201 -1.30086 4.95188 47.0447 0.122154 5.03319 
